<svg width="375" height="812" viewBox="0 0 375 812" fill="none" xmlns="http://www.w3.org/2000/svg">
<g clip-path="url(#clip0_74_248)">
<rect width="375" height="812" rx="39" fill="url(#paint0_linear_74_248)"/>
<g filter="url(#filter0_f_74_248)">
<circle cx="326" cy="-71" r="109" fill="#24A5FF"/>
</g>
<g filter="url(#filter1_f_74_248)">
<ellipse cx="205.5" cy="899.5" rx="88.5" ry="81.5" fill="#24A5FF"/>
</g>
<rect x="34" y="712" width="144" height="60" rx="16" fill="#303136"/>
<path d="M97.664 741.544C97.664 745.149 98.304 747.976 99.584 750.024C100.864 752.051 102.997 753.064 105.984 753.064C108.971 753.064 111.104 752.04 112.384 749.992C113.664 747.944 114.304 745.128 114.304 741.544C114.304 737.981 113.664 735.187 112.384 733.16C111.104 731.112 108.971 730.088 105.984 730.088C102.997 730.088 100.864 731.101 99.584 733.128C98.304 735.155 97.664 737.96 97.664 741.544ZM110.656 741.544C110.656 744.147 110.336 746.141 109.696 747.528C109.056 748.915 107.819 749.608 105.984 749.608C104.128 749.608 102.88 748.915 102.24 747.528C101.6 746.141 101.28 744.147 101.28 741.544C101.28 738.963 101.6 736.989 102.24 735.624C102.88 734.259 104.128 733.576 105.984 733.576C107.819 733.576 109.056 734.269 109.696 735.656C110.336 737.021 110.656 738.984 110.656 741.544Z" fill="#29A8FF"/>
<rect x="280" y="674" width="62" height="96" rx="12" fill="#1991FF"/>
<path d="M319.516 716.168V719.496H302.492V716.168H319.516ZM319.516 723.368V726.696H302.492V723.368H319.516Z" fill="#B2DAFF"/>
<rect x="280" y="552" width="62" height="96" rx="12" fill="#005DB2"/>
<path d="M318.812 601.144H312.412V607.608H308.86V601.144H302.492V597.784H308.86V591.288H312.412V597.784H318.812V601.144Z" fill="#339DFF"/>
<rect x="198" y="710" width="62" height="62" rx="16" fill="#303136"/>
<rect x="227" y="739" width="4.5" height="4.5" fill="#109DFF"/>
<rect x="198" y="622" width="62" height="60" rx="16" fill="#303136"/>
<path d="M229.1 639.704C230.593 639.704 231.873 639.971 232.94 640.504C234.007 641.016 234.807 641.731 235.34 642.648C235.895 643.565 236.172 644.589 236.172 645.72C236.172 647.149 235.767 648.344 234.956 649.304C234.167 650.243 233.047 650.808 231.596 651V651.16C233.153 651.608 234.369 652.28 235.244 653.176C236.14 654.051 236.588 655.267 236.588 656.824C236.588 658.723 235.959 660.269 234.7 661.464C233.441 662.637 231.639 663.224 229.292 663.224C226.881 663.224 224.94 662.616 223.468 661.4C221.996 660.163 221.153 658.339 220.94 655.928H224.556C224.684 657.208 225.143 658.232 225.932 659C226.721 659.747 227.788 660.12 229.132 660.12C230.391 660.12 231.351 659.789 232.012 659.128C232.695 658.467 233.036 657.613 233.036 656.568C233.036 655.309 232.545 654.349 231.564 653.688C230.604 653.027 229.207 652.696 227.372 652.696H226.508V649.688H227.372C230.849 649.731 232.588 648.547 232.588 646.136C232.588 645.091 232.268 644.269 231.628 643.672C230.988 643.075 230.113 642.776 229.004 642.776C227.895 642.776 226.967 643.117 226.22 643.8C225.473 644.461 225.025 645.432 224.876 646.712H221.292C221.441 644.493 222.188 642.776 223.532 641.56C224.876 640.323 226.732 639.704 229.1 639.704Z" fill="#29A8FF"/>
<rect x="34" y="622" width="62" height="60" rx="16" fill="#303136"/>
<path d="M60.416 643.832V640.408H67.648V663H63.808V643.832H60.416Z" fill="#29A8FF"/>
<rect x="116" y="622" width="62" height="60" rx="16" fill="#303136"/>
<path d="M138.78 660.152C142.236 657.784 144.999 655.469 147.068 653.208C149.159 650.925 150.204 648.813 150.204 646.872C150.204 645.72 149.916 644.803 149.34 644.12C148.785 643.437 147.879 643.096 146.62 643.096C145.319 643.096 144.337 643.523 143.676 644.376C143.015 645.208 142.641 646.403 142.556 647.96H139.004C139.153 645.379 139.943 643.405 141.372 642.04C142.823 640.675 144.668 639.992 146.908 639.992C149.105 639.992 150.823 640.579 152.06 641.752C153.319 642.904 153.948 644.504 153.948 646.552C153.948 648.195 153.436 649.859 152.412 651.544C151.409 653.229 150.129 654.787 148.572 656.216C147.015 657.624 145.404 658.84 143.74 659.864H154.46V662.84H138.78V660.152Z" fill="#29A8FF"/>
<rect x="280" y="330" width="62" height="40" rx="20" fill="#303136"/>
<path d="M298.716 344.186C299.616 344.186 300.384 344.408 301.02 344.852C301.656 345.296 302.1 345.884 302.352 346.616V340.91H304.422V354.23H302.352V351.926C302.1 352.658 301.656 353.246 301.02 353.69C300.384 354.134 299.616 354.356 298.716 354.356C297.852 354.356 297.078 354.152 296.394 353.744C295.722 353.336 295.194 352.748 294.81 351.98C294.426 351.212 294.234 350.306 294.234 349.262C294.234 348.23 294.426 347.33 294.81 346.562C295.194 345.794 295.722 345.206 296.394 344.798C297.078 344.39 297.852 344.186 298.716 344.186ZM299.346 345.986C298.434 345.986 297.702 346.28 297.15 346.868C296.61 347.444 296.34 348.242 296.34 349.262C296.34 350.282 296.61 351.086 297.15 351.674C297.702 352.25 298.434 352.538 299.346 352.538C299.922 352.538 300.438 352.406 300.894 352.142C301.35 351.866 301.71 351.482 301.974 350.99C302.238 350.498 302.37 349.922 302.37 349.262C302.37 348.614 302.238 348.044 301.974 347.552C301.71 347.048 301.35 346.664 300.894 346.4C300.438 346.124 299.922 345.986 299.346 345.986Z" fill="#29A8FF"/>
<path d="M316.101 348.794C316.101 349.13 316.077 349.424 316.029 349.676H308.397C308.433 350.696 308.715 351.452 309.243 351.944C309.771 352.436 310.425 352.682 311.205 352.682C311.889 352.682 312.465 352.508 312.933 352.16C313.413 351.812 313.707 351.35 313.815 350.774H316.011C315.879 351.47 315.603 352.088 315.183 352.628C314.763 353.168 314.217 353.594 313.545 353.906C312.873 354.206 312.123 354.356 311.295 354.356C310.335 354.356 309.483 354.152 308.739 353.744C308.007 353.336 307.431 352.748 307.011 351.98C306.591 351.212 306.381 350.306 306.381 349.262C306.381 348.23 306.591 347.33 307.011 346.562C307.431 345.794 308.007 345.206 308.739 344.798C309.483 344.39 310.335 344.186 311.295 344.186C312.267 344.186 313.113 344.39 313.833 344.798C314.565 345.194 315.123 345.746 315.507 346.454C315.903 347.15 316.101 347.93 316.101 348.794ZM314.031 348.74C314.055 348.092 313.941 347.552 313.689 347.12C313.449 346.676 313.113 346.352 312.681 346.148C312.261 345.932 311.799 345.824 311.295 345.824C310.491 345.824 309.819 346.07 309.279 346.562C308.739 347.054 308.445 347.78 308.397 348.74H314.031Z" fill="#29A8FF"/>
<path d="M322.06 344.186C322.96 344.186 323.728 344.408 324.364 344.852C325 345.296 325.45 345.884 325.714 346.616V344.312H327.766V354.338C327.766 355.262 327.574 356.078 327.19 356.786C326.818 357.506 326.278 358.07 325.57 358.478C324.862 358.886 324.022 359.09 323.05 359.09C321.658 359.09 320.53 358.76 319.666 358.1C318.814 357.44 318.28 356.546 318.064 355.418H320.098C320.266 356.006 320.59 356.462 321.07 356.786C321.55 357.122 322.162 357.29 322.906 357.29C323.722 357.29 324.394 357.038 324.922 356.534C325.45 356.03 325.714 355.298 325.714 354.338V351.926C325.45 352.658 325 353.246 324.364 353.69C323.728 354.134 322.96 354.356 322.06 354.356C321.196 354.356 320.422 354.152 319.738 353.744C319.066 353.336 318.538 352.748 318.154 351.98C317.77 351.212 317.578 350.306 317.578 349.262C317.578 348.23 317.77 347.33 318.154 346.562C318.538 345.794 319.066 345.206 319.738 344.798C320.422 344.39 321.196 344.186 322.06 344.186ZM322.69 345.986C321.778 345.986 321.046 346.28 320.494 346.868C319.954 347.444 319.684 348.242 319.684 349.262C319.684 350.282 319.954 351.086 320.494 351.674C321.046 352.25 321.778 352.538 322.69 352.538C323.266 352.538 323.782 352.406 324.238 352.142C324.694 351.866 325.054 351.482 325.318 350.99C325.582 350.498 325.714 349.922 325.714 349.262C325.714 348.614 325.582 348.044 325.318 347.552C325.054 347.048 324.694 346.664 324.238 346.4C323.782 346.124 323.266 345.986 322.69 345.986Z" fill="#29A8FF"/>
<rect x="198" y="330" width="62" height="40" rx="20" fill="#303136"/>
<path d="M220.763 346.895C221.927 346.895 222.857 347.195 223.553 347.795C224.261 348.383 224.693 349.175 224.849 350.171H222.905C222.821 349.631 222.587 349.199 222.203 348.875C221.831 348.539 221.333 348.371 220.709 348.371C220.193 348.371 219.791 348.497 219.503 348.749C219.227 348.989 219.089 349.319 219.089 349.739C219.089 350.051 219.191 350.303 219.395 350.495C219.599 350.687 219.851 350.837 220.151 350.945C220.463 351.053 220.901 351.173 221.465 351.305C222.209 351.473 222.809 351.647 223.265 351.827C223.733 352.007 224.129 352.295 224.453 352.691C224.789 353.075 224.957 353.603 224.957 354.275C224.957 355.103 224.639 355.775 224.003 356.291C223.379 356.807 222.533 357.065 221.465 357.065C220.229 357.065 219.227 356.777 218.459 356.201C217.703 355.625 217.247 354.821 217.091 353.789H219.089C219.149 354.329 219.389 354.767 219.809 355.103C220.229 355.439 220.781 355.607 221.465 355.607C221.957 355.607 222.341 355.481 222.617 355.229C222.905 354.965 223.049 354.635 223.049 354.239C223.049 353.891 222.941 353.615 222.725 353.411C222.509 353.207 222.239 353.051 221.915 352.943C221.591 352.823 221.147 352.703 220.583 352.583C219.863 352.415 219.275 352.247 218.819 352.079C218.375 351.911 217.991 351.641 217.667 351.269C217.355 350.885 217.199 350.369 217.199 349.721C217.199 348.881 217.511 348.203 218.135 347.687C218.771 347.159 219.647 346.895 220.763 346.895Z" fill="#29A8FF"/>
<path d="M226.726 344.141C226.726 343.793 226.846 343.505 227.086 343.277C227.326 343.049 227.644 342.935 228.04 342.935C228.436 342.935 228.754 343.049 228.994 343.277C229.246 343.505 229.372 343.793 229.372 344.141C229.372 344.489 229.246 344.771 228.994 344.987C228.754 345.203 228.436 345.311 228.04 345.311C227.644 345.311 227.326 345.203 227.086 344.987C226.846 344.771 226.726 344.489 226.726 344.141ZM229.066 347.021V356.939H227.014V347.021H229.066Z" fill="#29A8FF"/>
<path d="M237.093 346.859C238.245 346.859 239.169 347.231 239.865 347.975C240.561 348.719 240.909 349.781 240.909 351.161V356.939H238.857V351.377C238.857 350.489 238.629 349.805 238.173 349.325C237.717 348.833 237.093 348.587 236.301 348.587C235.485 348.587 234.831 348.851 234.339 349.379C233.847 349.895 233.601 350.657 233.601 351.665V356.939H231.549V347.021H233.601V349.199C233.865 348.455 234.309 347.879 234.933 347.471C235.557 347.063 236.277 346.859 237.093 346.859Z" fill="#29A8FF"/>
<rect x="34" y="330" width="62" height="40" rx="20" fill="#303136"/>
<path d="M69.86 349.523C69.86 349.859 69.836 350.153 69.788 350.405H62.156C62.192 351.425 62.474 352.181 63.002 352.673C63.53 353.165 64.184 353.411 64.964 353.411C65.648 353.411 66.224 353.237 66.692 352.889C67.172 352.541 67.466 352.079 67.574 351.503H69.77C69.638 352.199 69.362 352.817 68.942 353.357C68.522 353.897 67.976 354.323 67.304 354.635C66.632 354.935 65.882 355.085 65.054 355.085C64.094 355.085 63.242 354.881 62.498 354.473C61.766 354.065 61.19 353.477 60.77 352.709C60.35 351.941 60.14 351.035 60.14 349.991C60.14 348.959 60.35 348.059 60.77 347.291C61.19 346.523 61.766 345.935 62.498 345.527C63.242 345.119 64.094 344.915 65.054 344.915C66.026 344.915 66.872 345.119 67.592 345.527C68.324 345.923 68.882 346.475 69.266 347.183C69.662 347.879 69.86 348.659 69.86 349.523ZM67.79 349.469C67.814 348.821 67.7 348.281 67.448 347.849C67.208 347.405 66.872 347.081 66.44 346.877C66.02 346.661 65.558 346.553 65.054 346.553C64.25 346.553 63.578 346.799 63.038 347.291C62.498 347.783 62.204 348.509 62.156 349.469H67.79Z" fill="#29A8FF"/>
<rect x="116" y="330" width="62" height="40" rx="20" fill="#303136"/>
<path d="M151.689 342.683V352.601H149.619V350.531C149.367 351.239 148.947 351.785 148.359 352.169C147.783 352.553 147.105 352.745 146.325 352.745C145.929 352.745 145.557 352.673 145.209 352.529C144.861 352.385 144.579 352.151 144.363 351.827V357.317H142.311V342.683H144.363V347.849C144.363 348.857 144.603 349.625 145.083 350.153C145.575 350.681 146.229 350.945 147.045 350.945C147.825 350.945 148.449 350.693 148.917 350.189C149.385 349.673 149.619 348.923 149.619 347.939V342.683H151.689Z" fill="#29A8FF"/>
<rect x="280" y="470" width="62" height="60" rx="16" fill="#005DB2"/>
<path d="M315.396 497.88V500.952H302.212V497.88H315.396Z" fill="#24A5FF"/>
<rect x="198" y="470" width="62" height="60" rx="16" fill="#303136"/>
<path d="M224.664 504.472C224.835 505.688 225.251 506.627 225.912 507.288C226.595 507.949 227.512 508.28 228.664 508.28C230.285 508.28 231.491 507.64 232.28 506.36C233.091 505.059 233.496 503.021 233.496 500.248L233.464 499.16C233.123 500.312 232.408 501.24 231.32 501.944C230.253 502.627 229.005 502.968 227.576 502.968C225.357 502.968 223.619 502.307 222.36 500.984C221.101 499.64 220.472 497.773 220.472 495.384C220.472 493.933 220.76 492.632 221.336 491.48C221.912 490.328 222.776 489.421 223.928 488.76C225.08 488.077 226.499 487.736 228.184 487.736C231.448 487.736 233.688 488.739 234.904 490.744C236.141 492.728 236.76 495.48 236.76 499C236.76 502.989 236.131 506.029 234.872 508.12C233.635 510.211 231.565 511.256 228.664 511.256C226.424 511.256 224.664 510.627 223.384 509.368C222.125 508.088 221.4 506.456 221.208 504.472H224.664ZM233.112 495.768C233.112 494.381 232.707 493.229 231.896 492.312C231.107 491.373 229.912 490.904 228.312 490.904C226.989 490.904 225.923 491.299 225.112 492.088C224.323 492.877 223.928 493.987 223.928 495.416C223.928 496.931 224.323 498.093 225.112 498.904C225.923 499.715 227.021 500.12 228.408 500.12C229.219 500.12 229.976 499.96 230.68 499.64C231.405 499.299 231.992 498.808 232.44 498.168C232.888 497.507 233.112 496.707 233.112 495.768Z" fill="#29A8FF"/>
<rect x="34" y="470" width="62" height="60" rx="16" fill="#303136"/>
<path d="M71.892 491.032L63.476 511H59.636L68.18 491.448H56.98V488.28H71.892V491.032Z" fill="#29A8FF"/>
<rect x="116" y="470" width="62" height="60" rx="16" fill="#303136"/>
<path d="M138.74 493.656C138.74 492.547 139.039 491.533 139.636 490.616C140.233 489.699 141.119 488.963 142.292 488.408C143.487 487.853 144.916 487.576 146.58 487.576C148.244 487.576 149.663 487.853 150.836 488.408C152.031 488.963 152.927 489.699 153.524 490.616C154.143 491.533 154.452 492.547 154.452 493.656C154.452 494.893 154.121 495.96 153.46 496.856C152.82 497.752 151.86 498.403 150.58 498.808C152.009 499.256 153.108 499.981 153.876 500.984C154.644 501.965 155.028 503.171 155.028 504.6C155.028 506.797 154.249 508.515 152.692 509.752C151.135 510.968 149.097 511.576 146.58 511.576C144.063 511.576 142.025 510.968 140.468 509.752C138.932 508.515 138.164 506.797 138.164 504.6C138.164 503.171 138.548 501.965 139.316 500.984C140.084 499.981 141.183 499.256 142.612 498.808C141.332 498.403 140.361 497.752 139.7 496.856C139.06 495.96 138.74 494.893 138.74 493.656ZM142.356 494.232C142.356 495.384 142.729 496.28 143.476 496.92C144.244 497.539 145.279 497.848 146.58 497.848C147.881 497.848 148.916 497.539 149.684 496.92C150.452 496.28 150.836 495.384 150.836 494.232C150.836 493.08 150.441 492.184 149.652 491.544C148.884 490.904 147.86 490.584 146.58 490.584C145.3 490.584 144.276 490.904 143.508 491.544C142.74 492.184 142.356 493.08 142.356 494.232ZM141.716 504.408C141.716 505.709 142.153 506.733 143.028 507.48C143.903 508.205 145.087 508.568 146.58 508.568C148.073 508.568 149.257 508.205 150.132 507.48C151.007 506.733 151.444 505.709 151.444 504.408C151.444 503.085 150.985 502.093 150.068 501.432C149.172 500.749 148.009 500.408 146.58 500.408C145.172 500.408 144.009 500.749 143.092 501.432C142.175 502.115 141.716 503.107 141.716 504.408Z" fill="#29A8FF"/>
<rect x="198" y="546" width="62" height="60" rx="16" fill="#303136"/>
<path d="M233.048 570.488C232.664 567.971 231.352 566.712 229.112 566.712C227.491 566.712 226.275 567.363 225.464 568.664C224.653 569.944 224.248 571.96 224.248 574.712L224.28 575.8C224.6 574.648 225.293 573.731 226.36 573.048C227.427 572.365 228.685 572.024 230.136 572.024C232.355 572.024 234.093 572.685 235.352 574.008C236.611 575.331 237.24 577.197 237.24 579.608C237.24 581.059 236.952 582.36 236.376 583.512C235.8 584.643 234.936 585.549 233.784 586.232C232.632 586.893 231.213 587.224 229.528 587.224C226.264 587.224 224.024 586.211 222.808 584.184C221.592 582.157 220.984 579.373 220.984 575.832C220.984 571.779 221.635 568.749 222.936 566.744C224.237 564.739 226.371 563.736 229.336 563.736C231.555 563.736 233.251 564.365 234.424 565.624C235.619 566.883 236.312 568.504 236.504 570.488H233.048ZM224.6 579.192C224.6 580.579 225.005 581.741 225.816 582.68C226.627 583.597 227.821 584.056 229.4 584.056C230.744 584.056 231.811 583.661 232.6 582.872C233.411 582.083 233.816 580.984 233.816 579.576C233.816 578.061 233.411 576.899 232.6 576.088C231.789 575.277 230.691 574.872 229.304 574.872C228.045 574.872 226.947 575.245 226.008 575.992C225.069 576.739 224.6 577.805 224.6 579.192Z" fill="#29A8FF"/>
<rect x="34" y="546" width="62" height="60" rx="16" fill="#303136"/>
<path d="M55.62 582.136V579.064L66.852 564.216H70.756V578.936H73.924V582.136H70.756V587H67.076V582.136H55.62ZM67.332 568.568L59.396 578.936H67.332V568.568Z" fill="#29A8FF"/>
<rect x="116" y="546" width="62" height="60" rx="16" fill="#303136"/>
<path d="M154.312 567.288H143.144V574.008C143.656 573.347 144.381 572.824 145.32 572.44C146.259 572.035 147.293 571.832 148.424 571.832C150.003 571.832 151.315 572.173 152.36 572.856C153.405 573.517 154.173 574.403 154.664 575.512C155.176 576.621 155.432 577.848 155.432 579.192C155.432 581.56 154.771 583.48 153.448 584.952C152.125 586.403 150.205 587.128 147.688 587.128C145.32 587.128 143.411 586.499 141.96 585.24C140.509 583.981 139.72 582.307 139.592 580.216H143.176C143.368 581.368 143.837 582.275 144.584 582.936C145.352 583.597 146.323 583.928 147.496 583.928C148.947 583.928 150.035 583.491 150.76 582.616C151.485 581.741 151.848 580.579 151.848 579.128C151.848 577.763 151.475 576.696 150.728 575.928C149.981 575.139 148.915 574.744 147.528 574.744C146.547 574.744 145.683 574.957 144.936 575.384C144.211 575.811 143.677 576.376 143.336 577.08H139.784V564.056H154.312V567.288Z" fill="#29A8FF"/>
<rect x="280" y="386" width="62" height="62" rx="16" fill="#005DB2"/>
<path d="M315.556 412.819L317 415.372L312.604 417L317 418.596L315.524 421.245L311.866 418.34L312.572 423H309.588L310.23 418.34L306.54 421.309L305 418.596L309.364 416.968L305.032 415.372L306.476 412.787L310.23 415.66L309.556 411H312.572L311.866 415.66L315.556 412.819Z" fill="#339DFF"/>
<rect x="198" y="386" width="62" height="62" rx="16" fill="#005DB2"/>
<path d="M234 404L225.478 431H222L230.522 404H234Z" fill="#339DFF"/>
<rect x="34" y="386" width="62" height="62" rx="16" fill="#616161"/>
<path d="M61.164 421.088H53.724L52.308 425H49.956L56.22 408.392H58.692L64.932 425H62.58L61.164 421.088ZM60.54 419.384L57.444 410.84L54.348 419.384H60.54ZM72.9746 411.656C74.6546 411.656 76.0466 412.104 77.1506 413C78.2546 413.896 78.9346 415.096 79.1906 416.6H76.8866C76.7266 415.656 76.2866 414.92 75.5666 414.392C74.8626 413.848 73.9826 413.576 72.9266 413.576C72.1586 413.576 71.4546 413.752 70.8146 414.104C70.1906 414.456 69.6866 415 69.3026 415.736C68.9186 416.456 68.7266 417.352 68.7266 418.424C68.7266 419.496 68.9186 420.4 69.3026 421.136C69.6866 421.856 70.1906 422.392 70.8146 422.744C71.4546 423.096 72.1586 423.272 72.9266 423.272C73.9826 423.272 74.8626 423 75.5666 422.456C76.2866 421.912 76.7266 421.168 76.8866 420.224H79.1906C78.9346 421.744 78.2546 422.952 77.1506 423.848C76.0466 424.728 74.6546 425.168 72.9746 425.168C71.7106 425.168 70.5906 424.896 69.6146 424.352C68.6386 423.808 67.8706 423.032 67.3106 422.024C66.7666 421 66.4946 419.8 66.4946 418.424C66.4946 417.048 66.7666 415.848 67.3106 414.824C67.8706 413.8 68.6386 413.016 69.6146 412.472C70.5906 411.928 71.7106 411.656 72.9746 411.656Z" fill="#A5A5A5"/>
<rect x="116" y="386" width="62" height="62" rx="16" fill="#616161"/>
<path d="M139.535 408H154C154.265 408 154.52 408.105 154.707 408.293C154.895 408.48 155 408.735 155 409V425C155 425.265 154.895 425.52 154.707 425.707C154.52 425.895 154.265 426 154 426H139.535C139.37 426 139.208 425.959 139.063 425.882C138.918 425.804 138.794 425.692 138.703 425.555L133.37 417.555C133.26 417.391 133.202 417.198 133.202 417C133.202 416.802 133.26 416.609 133.37 416.445L138.703 408.445C138.794 408.308 138.918 408.196 139.063 408.118C139.208 408.041 139.37 408 139.535 408ZM140.07 410L135.404 417L140.07 424H153V410H140.07ZM146 415.586L148.828 412.757L150.243 414.172L147.414 417L150.243 419.828L148.828 421.243L146 418.414L143.172 421.243L141.757 419.828L144.586 417L141.757 414.172L143.172 412.757L146 415.586Z" fill="#A5A5A5"/>
<path d="M198.024 207.752V212.744H172.488V207.752H198.024ZM198.024 218.552V223.544H172.488V218.552H198.024ZM200.077 204.248V199.112H210.925V233H205.165V204.248H200.077ZM216.092 228.728C221.276 225.176 225.42 221.704 228.524 218.312C231.66 214.888 233.228 211.72 233.228 208.808C233.228 207.08 232.796 205.704 231.932 204.68C231.1 203.656 229.74 203.144 227.852 203.144C225.9 203.144 224.428 203.784 223.436 205.064C222.444 206.312 221.884 208.104 221.756 210.44H216.428C216.652 206.568 217.836 203.608 219.98 201.56C222.156 199.512 224.924 198.488 228.284 198.488C231.58 198.488 234.156 199.368 236.012 201.128C237.9 202.856 238.844 205.256 238.844 208.328C238.844 210.792 238.076 213.288 236.54 215.816C235.036 218.344 233.116 220.68 230.78 222.824C228.444 224.936 226.028 226.76 223.532 228.296H239.612V232.76H216.092V228.728ZM248.078 229.256C248.654 230.728 248.942 232.248 248.942 233.816C248.942 235.608 248.478 237.064 247.55 238.184C246.622 239.336 245.214 239.912 243.326 239.912V237.704C244.126 237.704 244.718 237.496 245.102 237.08C245.486 236.664 245.678 235.96 245.678 234.968V234.536H242.894V229.256H248.078ZM252.368 225.704V221.096L269.216 198.824H275.072V220.904H279.824V225.704H275.072V233H269.552V225.704H252.368ZM269.936 205.352L258.032 220.904H269.936V205.352ZM307.124 203.432H290.372V213.512C291.14 212.52 292.228 211.736 293.636 211.16C295.044 210.552 296.596 210.248 298.292 210.248C300.66 210.248 302.628 210.76 304.196 211.784C305.764 212.776 306.916 214.104 307.652 215.768C308.42 217.432 308.804 219.272 308.804 221.288C308.804 224.84 307.812 227.72 305.828 229.928C303.844 232.104 300.964 233.192 297.188 233.192C293.636 233.192 290.772 232.248 288.596 230.36C286.42 228.472 285.236 225.96 285.044 222.824H290.42C290.708 224.552 291.412 225.912 292.532 226.904C293.684 227.896 295.14 228.392 296.9 228.392C299.076 228.392 300.708 227.736 301.796 226.424C302.884 225.112 303.428 223.368 303.428 221.192C303.428 219.144 302.868 217.544 301.748 216.392C300.628 215.208 299.028 214.616 296.948 214.616C295.476 214.616 294.18 214.936 293.06 215.576C291.972 216.216 291.172 217.064 290.66 218.12H285.332V198.584H307.124V203.432ZM312.789 225.704V221.096L329.637 198.824H335.493V220.904H340.245V225.704H335.493V233H329.973V225.704H312.789ZM330.357 205.352L318.453 220.904H330.357V205.352Z" fill="white"/>
<path d="M177.92 151.592C177.792 150.584 177.448 149.808 176.888 149.264C176.344 148.704 175.584 148.424 174.608 148.424C173.248 148.424 172.216 148.952 171.512 150.008C170.824 151.064 170.48 152.736 170.48 155.024L170.504 155.912C170.744 154.952 171.296 154.192 172.16 153.632C173.024 153.056 174.04 152.768 175.208 152.768C176.888 152.768 178.2 153.272 179.144 154.28C180.104 155.288 180.584 156.696 180.584 158.504C180.584 159.56 180.376 160.52 179.96 161.384C179.544 162.232 178.904 162.912 178.04 163.424C177.192 163.92 176.136 164.168 174.872 164.168C172.456 164.168 170.792 163.408 169.88 161.888C168.984 160.368 168.536 158.304 168.536 155.696C168.536 152.688 169.016 150.432 169.976 148.928C170.952 147.408 172.536 146.648 174.728 146.648C176.344 146.648 177.584 147.104 178.448 148.016C179.328 148.928 179.848 150.12 180.008 151.592H177.92ZM170.744 158.144C170.744 159.312 171.08 160.296 171.752 161.096C172.44 161.88 173.464 162.272 174.824 162.272C175.944 162.272 176.84 161.944 177.512 161.288C178.184 160.616 178.52 159.68 178.52 158.48C178.52 157.184 178.184 156.2 177.512 155.528C176.84 154.84 175.912 154.496 174.728 154.496C174.056 154.496 173.416 154.632 172.808 154.904C172.2 155.176 171.704 155.592 171.32 156.152C170.936 156.696 170.744 157.36 170.744 158.144ZM183.274 155.432C183.274 158.152 183.722 160.272 184.618 161.792C185.514 163.312 187.066 164.072 189.274 164.072C191.482 164.072 193.034 163.312 193.93 161.792C194.842 160.272 195.298 158.152 195.298 155.432C195.298 152.744 194.842 150.64 193.93 149.12C193.034 147.6 191.482 146.84 189.274 146.84C187.066 146.84 185.514 147.6 184.618 149.12C183.722 150.624 183.274 152.728 183.274 155.432ZM193.138 155.432C193.138 156.824 193.034 157.992 192.826 158.936C192.634 159.864 192.258 160.608 191.698 161.168C191.138 161.728 190.33 162.008 189.274 162.008C188.234 162.008 187.434 161.728 186.874 161.168C186.314 160.608 185.93 159.864 185.722 158.936C185.53 157.992 185.434 156.824 185.434 155.432C185.434 154.056 185.53 152.904 185.722 151.976C185.93 151.048 186.314 150.312 186.874 149.768C187.434 149.208 188.234 148.928 189.274 148.928C190.33 148.928 191.138 149.208 191.698 149.768C192.258 150.312 192.634 151.048 192.826 151.976C193.034 152.904 193.138 154.056 193.138 155.432ZM198.016 155.432C198.016 158.152 198.464 160.272 199.36 161.792C200.256 163.312 201.808 164.072 204.016 164.072C206.224 164.072 207.776 163.312 208.672 161.792C209.584 160.272 210.04 158.152 210.04 155.432C210.04 152.744 209.584 150.64 208.672 149.12C207.776 147.6 206.224 146.84 204.016 146.84C201.808 146.84 200.256 147.6 199.36 149.12C198.464 150.624 198.016 152.728 198.016 155.432ZM207.88 155.432C207.88 156.824 207.776 157.992 207.568 158.936C207.376 159.864 207 160.608 206.44 161.168C205.88 161.728 205.072 162.008 204.016 162.008C202.976 162.008 202.176 161.728 201.616 161.168C201.056 160.608 200.672 159.864 200.464 158.936C200.272 157.992 200.176 156.824 200.176 155.432C200.176 154.056 200.272 152.904 200.464 151.976C200.672 151.048 201.056 150.312 201.616 149.768C202.176 149.208 202.976 148.928 204.016 148.928C205.072 148.928 205.88 149.208 206.44 149.768C207 150.312 207.376 151.048 207.568 151.976C207.776 152.904 207.88 154.056 207.88 155.432ZM212.759 155.432C212.759 158.152 213.207 160.272 214.103 161.792C214.999 163.312 216.551 164.072 218.759 164.072C220.967 164.072 222.519 163.312 223.415 161.792C224.327 160.272 224.783 158.152 224.783 155.432C224.783 152.744 224.327 150.64 223.415 149.12C222.519 147.6 220.967 146.84 218.759 146.84C216.551 146.84 214.999 147.6 214.103 149.12C213.207 150.624 212.759 152.728 212.759 155.432ZM222.623 155.432C222.623 156.824 222.519 157.992 222.311 158.936C222.119 159.864 221.743 160.608 221.183 161.168C220.623 161.728 219.815 162.008 218.759 162.008C217.719 162.008 216.919 161.728 216.359 161.168C215.799 160.608 215.415 159.864 215.207 158.936C215.015 157.992 214.919 156.824 214.919 155.432C214.919 154.056 215.015 152.904 215.207 151.976C215.415 151.048 215.799 150.312 216.359 149.768C216.919 149.208 217.719 148.928 218.759 148.928C219.815 148.928 220.623 149.208 221.183 149.768C221.743 150.312 222.119 151.048 222.311 151.976C222.519 152.904 222.623 154.056 222.623 155.432ZM236.094 162.32C238.814 160.496 240.99 158.688 242.622 156.896C244.254 155.088 245.07 153.408 245.07 151.856C245.07 150.896 244.822 150.128 244.326 149.552C243.846 148.96 243.062 148.664 241.974 148.664C240.854 148.664 240.006 149.024 239.43 149.744C238.854 150.448 238.534 151.424 238.47 152.672H236.31C236.422 150.784 237.006 149.336 238.062 148.328C239.118 147.304 240.478 146.792 242.142 146.792C243.726 146.792 244.982 147.216 245.91 148.064C246.838 148.912 247.302 150.112 247.302 151.664C247.302 152.944 246.886 154.248 246.054 155.576C245.238 156.888 244.206 158.112 242.958 159.248C241.726 160.368 240.454 161.32 239.142 162.104H247.734V163.904H236.094V162.32ZM269.707 146.624C270.795 146.624 271.731 146.816 272.515 147.2C273.299 147.584 273.891 148.112 274.291 148.784C274.691 149.456 274.891 150.216 274.891 151.064C274.891 152.12 274.579 153.008 273.955 153.728C273.347 154.448 272.451 154.88 271.267 155.024V155.168C272.499 155.488 273.459 155.984 274.147 156.656C274.851 157.328 275.203 158.256 275.203 159.44C275.203 160.832 274.739 161.968 273.811 162.848C272.883 163.728 271.547 164.168 269.803 164.168C268.059 164.168 266.643 163.72 265.555 162.824C264.483 161.912 263.851 160.584 263.659 158.84H265.819C265.963 159.896 266.363 160.736 267.019 161.36C267.691 161.984 268.595 162.296 269.731 162.296C270.803 162.296 271.627 162.024 272.203 161.48C272.779 160.92 273.067 160.2 273.067 159.32C273.067 158.264 272.651 157.464 271.819 156.92C271.003 156.36 269.835 156.08 268.315 156.08H267.739V154.256H268.315C271.259 154.256 272.731 153.272 272.731 151.304C272.731 150.44 272.459 149.752 271.915 149.24C271.371 148.728 270.619 148.472 269.659 148.472C268.699 148.472 267.891 148.752 267.235 149.312C266.579 149.856 266.195 150.664 266.083 151.736H263.947C264.059 150.136 264.611 148.888 265.603 147.992C266.611 147.08 267.979 146.624 269.707 146.624ZM277.672 162.32C280.392 160.496 282.568 158.688 284.2 156.896C285.832 155.088 286.648 153.408 286.648 151.856C286.648 150.896 286.4 150.128 285.904 149.552C285.424 148.96 284.64 148.664 283.552 148.664C282.432 148.664 281.584 149.024 281.008 149.744C280.432 150.448 280.112 151.424 280.048 152.672H277.888C278 150.784 278.584 149.336 279.64 148.328C280.696 147.304 282.056 146.792 283.72 146.792C285.304 146.792 286.56 147.216 287.488 148.064C288.416 148.912 288.88 150.112 288.88 151.664C288.88 152.944 288.464 154.248 287.632 155.576C286.816 156.888 285.784 158.112 284.536 159.248C283.304 160.368 282.032 161.32 280.72 162.104H289.312V163.904H277.672V162.32ZM291.289 162.32C294.009 160.496 296.185 158.688 297.817 156.896C299.449 155.088 300.265 153.408 300.265 151.856C300.265 150.896 300.017 150.128 299.521 149.552C299.041 148.96 298.257 148.664 297.169 148.664C296.049 148.664 295.201 149.024 294.625 149.744C294.049 150.448 293.729 151.424 293.665 152.672H291.505C291.617 150.784 292.201 149.336 293.257 148.328C294.313 147.304 295.673 146.792 297.337 146.792C298.921 146.792 300.177 147.216 301.105 148.064C302.033 148.912 302.497 150.112 302.497 151.664C302.497 152.944 302.081 154.248 301.249 155.576C300.433 156.888 299.401 158.112 298.153 159.248C296.921 160.368 295.649 161.32 294.337 162.104H302.929V163.904H291.289V162.32ZM315.322 148.664L308.914 164H306.61L313.114 148.88H304.234V146.984H315.322V148.664ZM328.461 162.32C331.181 160.496 333.357 158.688 334.989 156.896C336.621 155.088 337.437 153.408 337.437 151.856C337.437 150.896 337.189 150.128 336.693 149.552C336.213 148.96 335.429 148.664 334.341 148.664C333.221 148.664 332.373 149.024 331.797 149.744C331.221 150.448 330.901 151.424 330.837 152.672H328.677C328.789 150.784 329.373 149.336 330.429 148.328C331.485 147.304 332.845 146.792 334.509 146.792C336.093 146.792 337.349 147.216 338.277 148.064C339.205 148.912 339.669 150.112 339.669 151.664C339.669 152.944 339.253 154.248 338.421 155.576C337.605 156.888 336.573 158.112 335.325 159.248C334.093 160.368 332.821 161.32 331.509 162.104H340.101V163.904H328.461V162.32Z" fill="#818181"/>
<path d="M234.989 141.392L228.413 168.104H226.301L232.853 141.392H234.989ZM261.735 156.224H256.671V161.336H254.535V156.224H249.495V154.232H254.535V149.096H256.671V154.232H261.735V156.224ZM325.255 147.848L326.215 149.576L322.783 150.872L326.215 152.168L325.231 153.896L322.375 151.712L322.855 155.36H320.887L321.295 151.712L318.391 153.968L317.383 152.168L320.791 150.872L317.383 149.576L318.391 147.824L321.295 150.032L320.863 146.384H322.855L322.375 150.032L325.255 147.848Z" fill="#109DFF"/>
</g>
<defs>
<filter id="filter0_f_74_248" x="116" y="-281" width="420" height="420" filterUnits="userSpaceOnUse" color-interpolation-filters="sRGB">
<feFlood flood-opacity="0" result="BackgroundImageFix"/>
<feBlend mode="normal" in="SourceGraphic" in2="BackgroundImageFix" result="shape"/>
<feGaussianBlur stdDeviation="50.5" result="effect1_foregroundBlur_74_248"/>
</filter>
<filter id="filter1_f_74_248" x="16" y="717" width="379" height="365" filterUnits="userSpaceOnUse" color-interpolation-filters="sRGB">
<feFlood flood-opacity="0" result="BackgroundImageFix"/>
<feBlend mode="normal" in="SourceGraphic" in2="BackgroundImageFix" result="shape"/>
<feGaussianBlur stdDeviation="50.5" result="effect1_foregroundBlur_74_248"/>
</filter>
<linearGradient id="paint0_linear_74_248" x1="387" y1="-43" x2="2.34152e-06" y2="848.5" gradientUnits="userSpaceOnUse">
<stop stop-color="#17181A"/>
<stop offset="1" stop-color="#17181A"/>
</linearGradient>
<clipPath id="clip0_74_248">
<rect width="375" height="812" rx="39" fill="white"/>
</clipPath>
</defs>
</svg>
